<svg width="202" height="47" viewBox="0 0 202 47" fill="none" xmlns="http://www.w3.org/2000/svg">
    <path fill-rule="evenodd" clip-rule="evenodd"
        d="M2.75791 4.29828C3.21417 3.60568 3.799 3.06711 4.51229 2.68257C5.05567 2.38976 5.59427 2.20245 6.20497 2.05206C7.91845 1.63006 9.60232 1.35047 11.3463 1.11424C11.6068 1.07893 11.8709 1.04615 12.1386 1.01596C15.16 0.676047 18.1812 0.486479 21.2022 0.447145C22.4148 0.431113 23.7167 0.42935 25.1077 0.441966C28.5153 0.472707 31.8597 0.686239 35.1412 1.08251C37.0226 1.30998 38.91 1.64449 40.7321 2.10059C41.1689 2.20995 41.5916 2.36288 42.0001 2.55944C43.4952 3.27943 44.3976 4.57225 44.7727 6.17754C45.0182 7.22791 45.2207 8.24527 45.3802 9.22964C45.7064 11.2424 45.9508 13.288 46.1135 15.3663C46.1923 16.3753 46.2621 17.4778 46.3227 18.6739C46.3363 18.9459 46.3475 19.2132 46.3563 19.4758C46.4467 22.182 46.4467 24.8698 46.3563 27.5391C46.3347 28.176 46.2822 29.1419 46.1989 30.4368C46.0992 31.9859 45.9483 33.5806 45.746 35.2209C45.51 37.139 45.2103 38.9769 44.7783 40.7932C44.4457 42.1915 43.7336 43.4105 42.5106 44.1582C41.968 44.49 41.3896 44.7336 40.7754 44.889C38.8103 45.3852 36.8896 45.7121 34.7027 45.9692C31.9955 46.2871 29.2259 46.4759 26.3941 46.5356C24.0733 46.5842 21.7011 46.5749 19.2775 46.5075C19.0197 46.5003 18.7529 46.4905 18.4769 46.4782C15.2113 46.331 11.9462 46.0466 8.7712 45.4891C7.69274 45.2997 6.69155 45.0794 5.76775 44.828C5.43433 44.7371 5.05941 44.5896 4.64289 44.3856C3.72085 43.9335 2.94063 43.1521 2.483 42.2224C2.12035 41.4847 1.95843 40.7872 1.78413 39.954C1.47157 38.4582 1.22401 36.9768 1.04156 35.5101C0.947008 34.7508 0.844418 33.9276 0.770668 33.1351C0.595978 31.2538 0.476657 29.5157 0.412814 27.9209C0.317158 25.5329 0.30571 22.8956 0.37836 20.0089C0.38502 19.7433 0.394266 19.4758 0.405989 19.2062C0.494709 17.1721 0.628671 15.2739 0.807928 13.512C1.04635 11.1714 1.39221 8.78159 1.93361 6.37124C2.09828 5.63683 2.36279 4.89877 2.75791 4.29828Z"
        fill="#003838" />
    <mask id="mask0_4320_18950" style="mask-type:luminance" maskUnits="userSpaceOnUse" x="0" y="0"
        width="47" height="47">
        <path
            d="M2.75791 4.29834C3.21417 3.60574 3.799 3.06717 4.51229 2.68263C5.05567 2.38982 5.59427 2.20251 6.20497 2.05212C7.91845 1.63012 9.60232 1.35053 11.3463 1.1143C11.6068 1.07899 11.8709 1.04621 12.1386 1.01602C15.16 0.676108 18.1812 0.486541 21.2022 0.447206C22.4148 0.431174 23.7167 0.429411 25.1077 0.442027C28.5153 0.472768 31.8597 0.6863 35.1412 1.08257C37.0226 1.31004 38.91 1.64455 40.7321 2.10065C41.1689 2.21001 41.5916 2.36294 42.0001 2.5595C43.4952 3.27949 44.3976 4.57231 44.7727 6.17761C45.0182 7.22797 45.2207 8.24533 45.3802 9.2297C45.7064 11.2425 45.9508 13.2881 46.1135 15.3664C46.1923 16.3753 46.2621 17.4779 46.3227 18.674C46.3363 18.946 46.3475 19.2132 46.3563 19.4759C46.4467 22.182 46.4467 24.8698 46.3563 27.5391C46.3347 28.1761 46.2822 29.142 46.1989 30.4368C46.0992 31.9859 45.9483 33.5806 45.746 35.2209C45.51 37.1391 45.2103 38.977 44.7783 40.7933C44.4457 42.1915 43.7336 43.4105 42.5106 44.1582C41.968 44.4901 41.3896 44.7337 40.7754 44.889C38.8103 45.3853 36.8896 45.7122 34.7027 45.9693C31.9955 46.2872 29.2259 46.476 26.3941 46.5357C24.0733 46.5843 21.7011 46.5749 19.2775 46.5076C19.0197 46.5004 18.7529 46.4906 18.4769 46.4783C15.2113 46.3311 11.9462 46.0467 8.7712 45.4892C7.69274 45.2998 6.69155 45.0794 5.76775 44.8281C5.43433 44.7372 5.05941 44.5897 4.64289 44.3856C3.72085 43.9336 2.94063 43.1522 2.483 42.2224C2.12035 41.4848 1.95843 40.7873 1.78413 39.9541C1.47157 38.4582 1.22401 36.9769 1.04156 35.5101C0.947008 34.7508 0.844418 33.9277 0.770668 33.1351C0.595978 31.2539 0.476657 29.5158 0.412814 27.921C0.317158 25.533 0.30571 22.8956 0.37836 20.0089C0.38502 19.7434 0.394266 19.4759 0.405989 19.2063C0.494709 17.1721 0.628671 15.274 0.807928 13.512C1.04635 11.1715 1.39221 8.78165 1.93361 6.37131C2.09828 5.63689 2.36279 4.89883 2.75791 4.29834Z"
            fill="white" />
    </mask>
    <g mask="url(#mask0_4320_18950)">
        <path
            d="M46.4241 112.379C80.0477 112.379 107.305 85.0953 107.305 51.439C107.305 17.7828 80.0477 -9.50098 46.4241 -9.50098C12.8005 -9.50098 -14.4568 17.7828 -14.4568 51.439C-14.4568 85.0953 12.8005 112.379 46.4241 112.379Z"
            fill="url(#paint0_radial_4320_18950)" />
    </g>
    <path
        d="M37.0073 34.0919C37.0331 34.0953 37.046 34.1099 37.046 34.1356L37.0427 35.2987C37.0427 35.3223 37.0309 35.3341 37.0073 35.3341L9.75982 35.3324C9.73852 35.3324 9.72784 35.3217 9.72784 35.3004L9.73291 34.1205C9.73291 34.1048 9.74072 34.0958 9.75646 34.0936C18.8098 32.9468 27.8934 32.9462 37.0073 34.0919Z"
        fill="#00FFAA" />
    <path
        d="M9.79159 28.9938C12.1188 26.9807 15.0581 25.7032 18.1219 25.0636C24.5201 23.7271 31.8079 24.7219 36.9534 28.9719C37.0038 29.0134 37.0291 29.0661 37.0291 29.1301L37.0307 31.3653C37.0307 31.445 36.9943 31.468 36.9214 31.4344C34.213 30.1585 31.1409 29.3198 27.7049 28.918C23.7792 28.4591 19.8729 28.6246 15.9863 29.4146C13.8138 29.8556 11.7349 30.5406 9.74954 31.4697C9.748 31.4703 9.7464 31.4708 9.74475 31.4712C9.73033 31.4744 9.71602 31.4658 9.7131 31.4523C9.71266 31.4503 9.71244 31.4482 9.71255 31.4462L9.71426 29.1621C9.71426 29.0948 9.74002 29.0386 9.79159 28.9938Z"
        fill="white" />
    <path
        d="M16.5111 13.3601C21.285 10.8135 27.0711 11.2006 31.4566 14.0906C33.8712 15.6806 35.6598 17.9787 36.8223 20.9848C36.9714 21.3719 37.0443 21.7518 37.041 22.1243C37.0275 23.4708 37.028 24.851 37.0426 26.2649C37.0437 26.3995 37.0051 26.413 36.9266 26.3053C31.8148 19.3269 21.1824 18.1134 13.9434 22.4929C12.374 23.4411 11.0069 24.7063 9.84217 26.2885C9.75246 26.4097 9.70821 26.3951 9.70931 26.2447C9.72274 24.7983 9.725 23.403 9.71602 22.0587C9.71382 21.7355 9.76759 21.4253 9.87745 21.1279C11.1879 17.61 13.3991 15.0208 16.5111 13.3601Z"
        fill="white" />
    <path fill-rule="evenodd" clip-rule="evenodd"
        d="M178.804 30.0583V21.0239H180.633V24.1679C180.938 23.9029 181.291 23.6941 181.692 23.5415C182.101 23.3889 182.539 23.3127 183.004 23.3127C183.405 23.3127 183.766 23.3769 184.087 23.5054C184.416 23.6338 184.697 23.8186 184.929 24.0595C185.162 24.3004 185.338 24.5935 185.459 24.9388C185.587 25.2761 185.651 25.6535 185.651 26.0711V30.0583H183.822V26.4566C183.822 25.9988 183.686 25.6335 183.413 25.3605C183.14 25.0794 182.783 24.9388 182.342 24.9388C182.117 24.9388 181.901 24.987 181.692 25.0834C181.484 25.1798 181.299 25.3082 181.139 25.4689C180.986 25.6295 180.862 25.8222 180.765 26.0471C180.677 26.2639 180.633 26.4927 180.633 26.7336V30.0583H178.804ZM193.425 23.4331V30.0583H191.596V29.3235C191.283 29.5885 190.922 29.7973 190.513 29.9499C190.112 30.1025 189.679 30.1788 189.213 30.1788C188.812 30.1788 188.447 30.1145 188.118 29.9861C187.789 29.8575 187.509 29.6729 187.276 29.4319C187.043 29.191 186.863 28.9019 186.734 28.5647C186.614 28.2193 186.554 27.8378 186.554 27.4202V23.4331H188.383V27.0228C188.383 27.4805 188.519 27.8459 188.792 28.1189C189.065 28.392 189.426 28.5285 189.875 28.5285C190.1 28.5285 190.317 28.4843 190.525 28.396C190.734 28.2996 190.914 28.1711 191.067 28.0105C191.227 27.8419 191.356 27.6532 191.452 27.4444C191.548 27.2275 191.596 26.9987 191.596 26.7578V23.4331H193.425ZM194.569 30.0583V21.0239H196.398V23.927C196.671 23.7262 196.971 23.5736 197.3 23.4692C197.629 23.3648 197.986 23.3127 198.371 23.3127C198.829 23.3127 199.258 23.405 199.659 23.5897C200.06 23.7663 200.409 24.0113 200.706 24.3245C201.003 24.6297 201.236 24.991 201.404 25.4086C201.581 25.8182 201.669 26.2599 201.669 26.7336C201.669 27.2155 201.581 27.6652 201.404 28.0828C201.236 28.5004 201.003 28.8658 200.706 29.179C200.409 29.4841 200.06 29.7291 199.659 29.9138C199.258 30.0905 198.829 30.1788 198.371 30.1788C197.986 30.1788 197.629 30.1266 197.3 30.0222C196.971 29.9098 196.671 29.7531 196.398 29.5524V30.0583H194.569ZM199.804 26.7336C199.804 26.4927 199.759 26.2639 199.671 26.0471C199.583 25.8222 199.459 25.6295 199.298 25.4689C199.146 25.3082 198.969 25.1798 198.769 25.0834C198.568 24.987 198.351 24.9388 198.119 24.9388C197.894 24.9388 197.677 24.987 197.469 25.0834C197.268 25.1798 197.088 25.3082 196.927 25.4689C196.775 25.6295 196.655 25.8222 196.566 26.0471C196.478 26.2639 196.434 26.4927 196.434 26.7336C196.434 26.9826 196.478 27.2195 196.566 27.4444C196.655 27.6612 196.775 27.8539 196.927 28.0226C197.08 28.1832 197.256 28.3117 197.457 28.408C197.665 28.5044 197.886 28.5526 198.119 28.5526C198.351 28.5526 198.568 28.5044 198.769 28.408C198.977 28.3117 199.158 28.1832 199.31 28.0226C199.463 27.8539 199.583 27.6612 199.671 27.4444C199.759 27.2195 199.804 26.9826 199.804 26.7336ZM90.4659 9.7464L85.7535 15.166H84.2495L87.0569 9.7464H90.4659ZM73.4812 37.3751H64.9586C58.5082 37.3083 53.2986 32.0958 53.2986 25.6515C53.2986 19.1738 58.5416 13.9279 64.992 13.9279H73.4812V18.0721H64.992C60.8143 18.0721 57.4387 21.4444 57.4387 25.6515C57.4387 29.8252 60.8143 33.231 64.992 33.231H73.4812V37.3751ZM85.4148 37.4421C80.199 37.4421 75.992 33.2309 75.992 28.0031V13.9279H80.1321V28.0031C80.1321 30.9186 82.506 33.2979 85.4148 33.2979C88.3237 33.2979 90.6641 30.9186 90.6641 28.0031V13.9279H94.8042V28.0031C94.8042 33.2309 90.5973 37.4421 85.4148 37.4421ZM97.315 37.3751V30.4501C97.315 26.6374 100.387 23.5627 104.197 23.5627H109.78C113.39 23.5627 113.39 18.0721 109.78 18.0721H97.315V13.9279H109.78C113.59 13.9279 116.662 17.0026 116.662 20.8008C116.662 24.3314 114.024 27.239 110.583 27.64V27.7069H104.197C102.659 27.7069 101.455 28.9447 101.455 30.4501V37.3751H97.315ZM128.094 37.4421C122.879 37.4421 118.672 33.2309 118.672 28.0031V13.9279H122.812V28.0031C122.812 30.9186 125.186 33.2979 128.094 33.2979C131.003 33.2979 133.344 30.9186 133.344 28.0031V13.9279H137.484V28.0031C137.484 33.2309 133.277 37.4421 128.094 37.4421ZM152.756 37.3751H146.909C143.1 37.3751 139.995 34.267 139.995 30.4543V13.9279H144.135V30.4543C144.135 31.9932 145.371 33.231 146.909 33.231H150.491C152.529 33.231 154.427 32.1976 155.535 30.486L160.97 22.0866C164.379 16.8019 166.585 13.7607 171.13 13.7607C173.935 13.7607 175.839 16.3675 175.839 20.7818V37.3751H171.698V20.7818C171.698 19.0422 171.431 17.9048 170.295 17.9048C168.39 17.9048 166.685 20.8488 165.917 22.0866L157.8 34.6301C156.692 36.3418 154.794 37.3751 152.756 37.3751Z"
        fill="#374151" />
    <defs>
        <radialGradient id="paint0_radial_4320_18950" cx="0" cy="0" r="1"
            gradientUnits="userSpaceOnUse"
            gradientTransform="translate(46.4241 51.439) rotate(90) scale(60.94 60.8809)">
            <stop stop-color="#259B6A" />
            <stop offset="0.44" stop-color="#259B6A" stop-opacity="0.203922" />
            <stop offset="1" stop-color="#259B6A" stop-opacity="0" />
        </radialGradient>
    </defs>
</svg>